<?xml version="1.0" encoding="utf-8"?>
<!-- Generator: Adobe Illustrator 25.0.1, SVG Export Plug-In . SVG Version: 6.00 Build 0)  -->
<svg version="1.1" id="Layer_1" xmlns="http://www.w3.org/2000/svg" xmlns:xlink="http://www.w3.org/1999/xlink" x="0px" y="0px"
	 viewBox="0 0 100 100" style="enable-background:new 0 0 100 100;" xml:space="preserve">
<style type="text/css">
	.st0{fill:#FFFFFF;}
</style>
<g>
	<path class="st0" d="M0,0.00001v19.61938h32.35162L0.51837,78.38062H0V100h100V0C100,0,0,0,0,0.00001z M53.09796,72.49158
		c-4.18146,0-8.66132-1.04822-10.69269-5.25116h-0.11823v4.38898H35.8352v-44.12l0.00049-0.00098h6.80902v16.31152h0.12048
		c1.8515-3.08862,5.73395-5.00488,9.19855-5.00488c9.73468,0,14.45514,7.66461,14.45514,16.99542
		C66.41888,64.3968,62.2384,72.49158,53.09796,72.49158z M84.84503,66.93348c3.94153,0,6.68835-2.72205,7.34705-7.29504h6.80878
		c-1.25464,8.28021-6.21118,12.85309-14.15582,12.85309c-9.67725,0-14.99292-7.10431-14.99292-16.49664
		c0-9.63898,5.07721-17.17786,15.23163-17.17786c7.16748,0,13.26202,3.70715,13.91711,11.55524h-6.79773l-0.01105-0.00024
		c-0.53827-3.89301-3.28528-5.9953-7.04797-5.9953c-3.52618,0-8.48273,1.91669-8.48273,11.61816
		C76.66138,61.30964,78.93024,66.93348,84.84503,66.93348z"/>
	<path class="st0" d="M51.06579,44.37629c-5.73157,0.00061-8.66003,4.51215-8.66003,11.30847
		c0,6.42487,3.16699,11.24683,8.66107,11.24683c6.21307,0,8.5423-5.68567,8.5423-11.24683
		C59.60479,49.87782,56.67767,44.3769,51.06579,44.37629z"/>
</g>
</svg>
