<?xml version="1.0" encoding="utf-8"?>
<!-- Generator: Adobe Illustrator 25.0.1, SVG Export Plug-In . SVG Version: 6.00 Build 0)  -->
<svg version="1.1" id="Layer_1" xmlns="http://www.w3.org/2000/svg" xmlns:xlink="http://www.w3.org/1999/xlink" x="0px" y="0px"
	 viewBox="0 0 100 100" style="enable-background:new 0 0 100 100;" xml:space="preserve">
<style type="text/css">
	.st0{fill:#FFFFFF;}
</style>
<g id="VK">
	<path class="st0" d="M0,0.00001v100h100v-100C100,0.00001,0,0.00001,0,0.00001z M88.12189,74.22865l-11.44025,0.16064
		c0,0-2.45728,0.48712-5.69073-1.73456c-4.2774-2.93903-8.31391-10.573-11.45636-9.57727
		c-3.19061,1.01178-3.08893,7.88025-3.08893,7.88025s0.02679,1.46686-0.70129,2.24841
		c-0.78693,0.85126-2.33411,1.02252-2.33411,1.02252h-5.11786c0,0-11.29578,0.67987-21.2478-9.67902
		C16.19848,53.24854,6.61584,30.83369,6.61584,30.83369S6.06439,29.36683,6.664,28.65486
		c0.67456-0.79767,2.51074-0.8512,2.51074-0.8512l12.23798-0.07495c0,0,1.15637,0.19275,1.98077,0.79767
		c0.67987,0.49786,1.06,1.42938,1.06,1.42938s1.98077,5.00543,4.59857,9.52911c5.11255,8.8385,7.49481,10.77112,9.23468,9.82355
		c2.53223-1.38123,1.77203-12.48956,1.77203-12.48956s0.04816-4.0365-1.27417-5.82989
		c-1.02246-1.39191-2.94971-1.79877-3.8009-1.91119c-0.69061-0.091,0.43896-1.69171,1.90582-2.40906
		c2.20026-1.07605,6.09222-1.14026,10.68542-1.0921c3.58148,0.03748,4.60931,0.26233,6.01196,0.59961
		c4.21851,1.01715,2.78912,4.9519,2.78912,14.39001c0,3.01935-0.54608,7.27533,1.63281,8.68329
		c0.93683,0.60492,3.23346,0.091,8.96698-9.64691c2.71954-4.61462,4.75922-10.04303,4.75922-10.04303
		s0.44434-0.96362,1.13495-1.38116c0.71198-0.42297,1.66492-0.29443,1.66492-0.29443l12.86963-0.07495
		c0,0,3.87054-0.46045,4.49689,1.28479c0.65851,1.83087-1.44543,6.11365-6.70782,13.12665
		c-8.64044,11.51526-9.60406,10.43384-2.43048,17.09351c6.85242,6.35992,8.27643,9.45416,8.50659,9.8396
		C94.10706,73.85926,88.12189,74.22865,88.12189,74.22865z"/>
</g>
</svg>
