<?xml version="1.0" encoding="utf-8"?>
<!-- Generator: Adobe Illustrator 25.0.1, SVG Export Plug-In . SVG Version: 6.00 Build 0)  -->
<svg version="1.1" id="Layer_1" xmlns="http://www.w3.org/2000/svg" xmlns:xlink="http://www.w3.org/1999/xlink" x="0px" y="0px"
	 viewBox="0 0 100 100" style="enable-background:new 0 0 100 100;" xml:space="preserve">
<style type="text/css">
	.st0{fill:#FFFFFF;}
</style>
<g id="Telegram">
	<path class="st0" d="M0,0.00001v100h100v-100C100,0.00001,0,0.00001,0,0.00001z M89.88184,23.40022l-8.89758,59.19586
		c-0.71509,4.75787-6.24463,7.03558-10.10345,4.16187L43.91919,66.6789c-1.94928-1.45166-2.11584-4.31116-0.34827-5.97931
		l24.43616-25.23804c0.89319-0.84302-0.21625-2.24603-1.24249-1.57123L34.71807,56.89637
		c-2.84051,1.86792-6.3244,2.48511-9.63379,1.70679L9.15484,54.85682c-3.953-0.92969-4.4035-6.37622-0.65692-7.94275
		l72.60297-30.35663C85.6944,14.63679,90.62183,18.47669,89.88184,23.40022z"/>
</g>
</svg>
