<svg id="icon-adress" xmlns="http://www.w3.org/2000/svg" viewBox="0 0 426.4 607.22"><defs><style>.cls-1{fill:#fff;}</style></defs><title>icon-adress</title><path class="cls-1" d="M1003.69,1301.84a5,5,0,0,1-7.6,0c-10.47-12.52-20.76-24.56-30.64-36.92-32.47-40.63-63.37-82.39-91-126.49-25.95-41.41-49.56-84.06-66.88-129.89-11.71-31-20.82-62.67-20.76-96.14.12-71.77,28-130.39,85.36-173.88,42.18-32,90.38-45.24,143.09-41.5,60.79,4.32,110.95,30.18,149.9,76.82,25.3,30.3,40.25,65.54,45.93,104.75,5,34.67.83,68.36-9.1,101.65-11.72,39.31-29.27,76-49.06,111.79-30.74,55.52-66.82,107.46-106.17,157.16-14.06,17.76-28.65,35.1-43,52.62Zm-3.85-316c42.59.1,76.21-33.35,76.3-75.92.09-42.82-33.65-76.7-76.27-76.58s-76,33.72-76,76.3S957.2,985.71,999.85,985.81Z" transform="translate(-786.8 -696.39)"/></svg>