<svg id="icon-funlab" xmlns="http://www.w3.org/2000/svg" viewBox="0 0 1848.48 1848.29"><defs><style>.cls-1{fill:#b582ad;}.cls-2{fill:#c15a5a;}.cls-3{fill:#be8d4a;}.cls-4{fill:#9bba6d;}.cls-5{fill:#dbdb60;}.cls-6{fill:#7895c6;}</style></defs><title>icon-funlab</title><path class="cls-1" d="M475.27,1925.76H466c8.61-3.93,17.75-6.5,26.16-11,48-25.72,63.5-87.62,32.78-132.49-16-23.32-38.68-36.18-66.28-40.87,10.62-1.71,21.39-2.76,31.82-5.22,83.32-19.7,140.34-91.43,141.94-178.08,1.15-62.16.36-124.32.09-186.48a401.82,401.82,0,0,1,4.22-57c16.92-122,113.05-267.08,286.42-303.66,16.79-3.54,33.78-6.16,50.68-9.21l56.06,0c2.65.66,5.27,1.66,8,1.93q97.47,9.7,177.64,65.93c3,2.11,5.79,4.64,9.71,4.94,6.32,9.32,16.09,14.94,24.13,22.42,80.92,75.28,122.55,167.67,122.06,278.68-.33,72.63-.07,145.26,0,217.89,0,3.65-.68,7.42,1.29,10.85-2.72,21-.22,42.06-1.66,63.06a51.74,51.74,0,0,0-3,6.63c-9.22,31.38-28.48,53.65-60.24,62.82-33.77,9.75-64.83,4.88-91.42-20.33-14.63-13.87-22.11-31.41-28.77-49.65q-.27-48.94-.55-97.88c-.06-11.45-1.12-12.61-12.8-12.61q-171.82,0-343.64,0c-11.06,0-13,1.8-13.25,12.75-.61,23.77-2.74,47.43-9,70.36-37.73,138.84-122.76,232.36-262.68,273-18.23,5.3-36.79,8.93-55.47,12A92.1,92.1,0,0,1,475.27,1925.76Zm526.6-554.46v-.08h164.37c20.94,0,20.94,0,18.86-20.92-8.89-89.62-87.24-161.78-177.31-163.42-110.23-2-185.29,85.18-189.54,170.63-.63,12.63,0,13.78,12.78,13.79Q916.46,1371.31,1001.87,1371.3Z" transform="translate(-77.94 -78)"/><path class="cls-2" d="M79.07,1013.14a.91.91,0,0,1,.71.8c3.14,29.73,18.43,51.81,43.72,67,55.43,33.25,124.26,0,137.14-59.22.07-.3.14-.6.23-.9a.92.92,0,0,1,1.78.25c.09,2.49.18,5,.18,7.48.08,175.72-.28,351.43.41,527.15.28,69.81,32.47,123.14,91,160.09,31.57,19.93,67.42,25.64,104.3,25.61h.16c27.57,4.7,50.25,17.55,66.2,40.85,30.72,44.87,15.2,106.77-32.78,132.49-8.36,4.48-17.43,7-26,10.93a.89.89,0,0,1-.37.08H423.24a57.19,57.19,0,0,1-15.35-1.94c-4.57-1.27-9.46-.93-14.1-1.54-151.54-19.83-281.59-143.72-308.88-294.2q-.17-1-.33-1.91a478.46,478.46,0,0,1-6.64-78.55V1014a.92.92,0,0,1,1.11-.9Z" transform="translate(-77.94 -78)"/><path class="cls-3" d="M541.12,90.08a349.82,349.82,0,0,0-61.74-10.42c-2.53-.19-5.33.29-7.53-1.39a1.21,1.21,0,0,0-.73-.26H419.93a1.11,1.11,0,0,0-.29,0c-11.12,3-22.78,3.23-34.15,5.1-158.11,26-283.74,156.32-304,315.46-.5,3.93-1.27,6.6-1.88,10.9-.57,4-1,8.92-1.58,12.92v589.51a1.17,1.17,0,0,0,.91,1.14h0a1.16,1.16,0,0,1,.89,1c3.18,29.66,18.44,51.69,43.69,66.84,55.43,33.25,124.25,0,137.13-59.22a36.05,36.05,0,0,1,1.78-4.94,1.19,1.19,0,0,0,.08-.42q.34-100.54.66-201.08c.13-57.56.32-115.13,0-172.69-.05-8.44,2.56-10.14,10.42-10.09,54.48.34,109,.06,163.45.38,7.85,0,10.68-1.83,10.64-10.2-.27-53.56.06-107.12,0-160.68,0-16.16,1.4-14.64-15.23-14.63q-76.65.06-153.3.23c-15.47,0-16.47-1-15.13-16.14,7.41-84.05,72.56-153.8,155.51-166.48,97.07-14.85,188.36,48.72,209.14,145.22,4,18.52,3,37.28,4.86,55.87a1.3,1.3,0,0,0,0,.22c10.15,36.61,32.21,62,69.79,71.39,46.12,11.53,92.75-14.22,108.68-59.1,1.73-4.86,3.23-9.8,4.84-14.71a1.19,1.19,0,0,0,.06-.3C826.2,312.6,729.21,139,541.12,90.08Z" transform="translate(-77.94 -78)"/><path class="cls-4" d="M1925.89,1738.89h.11V1543.26c0-3.29.19-8.95-.06-13.37-4-19.4-8.51-38.55-17.68-56.43-32.08-62.59-83.5-95.82-153.17-101.71-12.76-1.08-13.66-2.25-13.66-15.43,0-57.86.56-115.72-.29-173.56-.63-42.92-15.21-81.44-42.89-114.38-35.64-42.4-81.71-65-136.93-66.08-64.61-1.21-129.26-1-193.88,0-58.82.83-105.88,26.41-142.25,72.25,6.32,9.33,16.09,14.94,24.13,22.42,80.92,75.28,122.55,167.67,122.06,278.68-.33,72.63-.07,145.26,0,217.89,0,3.65-.68,7.42,1.29,10.85.79-2,1.66-4,2.37-6,9.73-27.81,29.75-41.59,58.78-41.69,82.49-.26,165-.51,247.46.08,35.74.25,59.6,25.52,60,61.41q.39,30.93,0,61.86c-.41,35.85-25.45,61.07-61.27,61.16q-122.34.32-244.69,0c-38.57-.07-63.17-24.85-63.85-63.67-.06-3.38-.34-6.75-.51-10.12a51.93,51.93,0,0,0-3,6.63c-9.22,31.38-28.48,53.65-60.24,62.82-33.77,9.75-64.83,4.88-91.42-20.33-14.63-13.87-22.11-31.41-28.77-49.65-.29,40.82-4.53,81.8,4.54,122.17,17.83,79.39,90.82,132.73,152.91,136.73l.54.24c.23,1-.06-1,0,0H1766.7a2.5,2.5,0,0,0,2.5-1.7L1768,1926c52.61-6.36,94.68-34.14,125.33-76.69A171.72,171.72,0,0,0,1924.2,1773C1924.62,1770.14,1926.47,1748.43,1925.89,1738.89Zm-369.63-417.46c-.69,28.62-21.37,49.33-50,49.72q-41.08.56-82.18,0c-30.73-.36-51.38-20-52.25-50.55-.79-28-.75-56-.06-84,.7-28.58,21.79-48.67,51.71-49.38q41.07-1,82.18,0c30.51.75,50.3,21.53,50.67,52,.17,13.54,0,27.09,0,40.63C1556.31,1293.73,1556.59,1307.59,1556.26,1321.43Z" transform="translate(-77.94 -78)"/><path class="cls-5" d="M1926,87.21l.44-3.08a1.75,1.75,0,0,0-.48-.7q.59-6-5.65-5.35l-.07-.07H1744.67a3.56,3.56,0,0,0-3.56,3.7c.11,2.75.22,5.49.22,8.25q0,307.05-.16,614.09c0,3.55,1,7.29-1,10.63-2.88.85-3.26-1.52-3.88-3Q1602.88,401,1469.61,90.37c-.83-1.94-1.65-3.94-2.61-5.82A12.14,12.14,0,0,0,1456.18,78h-261a8.18,8.18,0,0,0-8.07,6.38,18.06,18.06,0,0,0-.34,3.69q.23,122.22.31,244.42a40.37,40.37,0,0,0,.73,5.45c10.59-39.78,34.86-66,76-73.74,55.11-10.4,106.57,32.28,107.76,88.44,0,2.14.22,4.29.33,6.43,3.49,7.1,7.31,14.07,10.42,21.33q129.58,302.39,259,604.84c7.21,16.84,7.22,16.77,25.9,16.77q121.94,0,244,0c5,0,9.55.92,13.49-2.94,1-1.17,1-3.2,1.2-4.71,0-.08,0-.15,0-.23V87.46C1926,87.38,1925.93,87.29,1926,87.21Z" transform="translate(-77.94 -78)"/><path class="cls-6" d="M973.81,1001.73c-23.21-2.79-46.25-6.39-68.9-12.48-139.84-37.59-246.26-155.91-268.05-298.9-4.18-27.42-4.54-55.2-4.55-82.93,0-47.09-.39-94.19,1.2-141.26,10.14,36.67,32.21,62.1,69.83,71.5,46.12,11.53,92.75-14.22,108.68-59.1,1.74-4.91,3.26-9.9,4.89-14.86.41,3.35,1.19,6.7,1.19,10.06,0,51.08,1.6,102.18-.45,153.25-3.8,94.8,67.91,177.88,163.09,188.59,94.53,10.64,178.64-48.1,201-140.3,4.38-18.07,5.62-36.36,5.55-54.91q-.52-134.8-.51-269.61c0-4.28.71-8.56,1.08-12.85,10.59-39.78,34.86-66,76-73.74,55.11-10.4,106.57,32.28,107.76,88.44,0,2.14.22,4.29.33,6.43-.1,18.45-.27,36.91-.29,55.36-.11,76.92.92,153.87-.5,230.77-3.06,166.24-124.34,312.37-286.72,347.5-18,3.91-36.28,6.4-54.52,9Z" transform="translate(-77.94 -78)"/></svg>