<svg id="icon-phone" xmlns="http://www.w3.org/2000/svg" viewBox="0 0 563.69 563.69"><defs><style>.cls-1{fill:#fff;}</style></defs><title>icon-phone</title><path class="cls-1" d="M718.15,856.83c1.42-7.8,2.55-15.66,4.32-23.38,2.78-12.13,7.86-23.2,16.9-33,4.36,4.25,8.63,8.32,12.8,12.49q44.34,44.29,88.65,88.62c9.85,9.85,19.62,19.78,29.57,29.52,2.23,2.18,2.17,4.23,1.35,6.86a64.87,64.87,0,0,0,.56,40.67c3.2,9.59,9,17.54,15.92,24.72,26.41,27.41,52.63,55,79.45,82a431.89,431.89,0,0,0,37.18,33.18c16.66,13.28,36,15.39,56.18,9.82,3.9-1.07,6.17-.4,9,2.46,18.71,19,37.64,37.77,56.49,56.62s37.9,37.93,56.85,56.88c5.27,5.28,10.57,10.53,16.1,16-8.14,8.21-17.73,13-28.17,15.86-8.92,2.43-18.14,3.79-27.23,5.62H1118a35.18,35.18,0,0,0-3.91-.8A268.34,268.34,0,0,1,1034.6,1261c-35.77-15-67.71-36.46-98.39-59.83a697.49,697.49,0,0,1-66.74-58.09A736.76,736.76,0,0,1,802.52,1068c-19.21-24.93-37.21-50.68-51.84-78.69-13.28-25.42-23.05-52-28.17-80.23-1.73-9.55-2.92-19.21-4.35-28.82Z" transform="translate(-718.15 -718.15)"/><path class="cls-1" d="M834.31,718.15c10.67,4.67,17.35,14,25.26,21.84,27.71,27.41,55,55.28,82.8,82.54,10.72,10.5,10.9,23.54-.26,34-13.13,12.29-25.59,25.29-38.25,38.07-2.94,3-5.53,6.27-8,9.05L766.12,773.81a24.27,24.27,0,0,1,1.9-2.28c15.46-15.5,30.83-31.08,46.49-46.36,3-2.94,7.17-4.71,10.8-7Z" transform="translate(-718.15 -718.15)"/><path class="cls-1" d="M1281.85,1173.79c-3.06,9.69-11.15,15.38-17.81,22.17-12,12.2-24.12,24.23-36.22,36.31a23.65,23.65,0,0,1-2.07,1.71l-129.46-129.41c8.08-8,16.57-16.38,25-24.78,7.55-7.5,15.13-15,22.57-22.57,10.34-10.59,22.24-10.76,32.67-.32q48.81,48.85,97.54,97.79c3.26,3.3,5.2,7.91,7.75,11.91Z" transform="translate(-718.15 -718.15)"/></svg>