<svg id="Слой_9" data-name="Слой 9" xmlns="http://www.w3.org/2000/svg" viewBox="0 0 512 426.62"><defs><style>.cls-1{fill:#fff;}</style></defs><title>icon-mail</title><path class="cls-1" d="M744,1180q0-132.5,0-265c2,1.49,4,3,6,4.48,54.24,40.92,108.64,81.65,166,118.11,21,13.35,43.17,24.94,65,37.06,12.4,6.9,25.18,6.72,37.76.27,14.2-7.28,28.72-14.05,42.36-22.28,56.55-34.1,109.48-73.43,162.17-113.1q16.34-12.3,32.74-24.55v262c-.21.25-.52.48-.6.77-6.57,24.38-20.95,35.42-46.2,35.42H825.76c-13.66,0-27.34.28-41-.1-16.78-.47-29-8.72-36.81-23.43A100,100,0,0,1,744,1180Z" transform="translate(-744 -786.69)"/><path class="cls-1" d="M744,849q0-15,0-30c1.56-3.43,2.82-7,4.72-10.26,9.22-15.75,23.23-22.11,41.27-22.08q209.64.26,419.28.1,3,0,6,.12a42.2,42.2,0,0,1,38.84,30c.62,2,1.27,4.06,1.9,6.1v28c-4.38,3.24-8.84,6.37-13.12,9.73-55.95,43.91-112.35,87.23-172.21,125.74-17.3,11.13-35.77,20.47-53.93,30.19-10.56,5.65-21.61,6.12-32.59.51-5.77-2.95-11.82-5.38-17.48-8.52-39.7-22-76.5-48.45-112.8-75.53C816.89,905.58,780.59,877.11,744,849Z" transform="translate(-744 -786.69)"/></svg>