<svg id="insta" xmlns="http://www.w3.org/2000/svg" viewBox="0 0 1818 1818"><defs><style>.cls-1{fill:#fff;}.cls-2{fill:#365a8a;}</style></defs><title>logo-insta</title><circle class="cls-1" cx="909" cy="909" r="909"/><path class="cls-2" d="M998.51,1338.85c-50.79-1.35-101.1-1.78-151.31-4.2-98.24-4.74-171-72.37-176.23-170.37-4.92-92.86-3.14-186.09-3.71-279.16-.2-31.83,1.84-63.61,11.7-94.31,23.74-73.92,75.59-114.28,151.18-125.31a419,419,0,0,1,61.06-4.35c84.85.15,169.72.17,254.54,2.18,45.81,1.09,87.9,15.31,122.8,46.93,37.29,33.79,55.91,77.09,58.94,125.93,6.74,108.68,7.27,217.59.07,326.26-6.51,98.3-77.94,167.17-176.38,172.14C1100.18,1337.16,1049.09,1337.51,998.51,1338.85ZM1273,999.12c-.59,0-1.61-79.41-1.85-119.09-.07-11-1.23-22-1.94-32.94-4.75-73.28-47.46-120.34-120.41-122.58-100.45-3.07-201.12-2.74-301.59,0C777.61,726.48,731.36,773,729.57,842.78q-4,154.83,0,309.83c2,72.3,48.39,117.76,121,120.29,88.31,3.09,176.77,1.93,265.17,2.09a317.34,317.34,0,0,0,48.1-3.87c39.5-6,72.12-24.19,89.13-61.48a177.87,177.87,0,0,0,15.68-60.93C1271.91,1099,1271.79,1049,1273,999.12Z" transform="translate(-91 -91)"/><path class="cls-2" d="M998.55,825.32c94.64-.12,171.17,77.48,171.16,173.56s-76.59,173.66-171.21,173.52c-94.17-.13-170.16-77.34-170.28-173C828.1,902.8,903.79,825.44,998.55,825.32Zm.4,286.52c61.72-.06,111.6-50.9,111.22-113.37-.37-62.31-50.21-112.94-110.82-112.59-62.7.36-112,50.61-112,114C887.49,1061.52,937.69,1111.9,998.95,1111.84Z" transform="translate(-91 -91)"/><path class="cls-2" d="M1137.14,817.56c.05-22.27,17.38-39.81,39.41-39.88a39.84,39.84,0,0,1,39.8,39.73c.26,22.21-18.4,41.13-40.22,40.79C1154.57,857.86,1137.08,839.64,1137.14,817.56Z" transform="translate(-91 -91)"/></svg>