<svg id="vk" xmlns="http://www.w3.org/2000/svg" viewBox="0 0 1818 1818"><defs><style>.cls-1{fill:#fff;}.cls-2{fill:#5f83aa;}</style></defs><title>logo-vk</title><circle class="cls-1" cx="909" cy="909" r="909"/><path class="cls-2" d="M1357.19,1300.41c-23.46,0-46.93,0-70.39,0-7.35,0-14.18-2.24-20.81-5.27-3.67-1.67-7.68-2.36-11.32-4.29a160.81,160.81,0,0,1-23.93-15.61c-15.24-12-27.79-26.68-40.67-41-11.49-12.75-22.52-25.92-34.43-38.3-7.52-7.81-15.58-15-25.12-20.23-14-7.67-23-7-35.17,3.65-7.09,6.19-10.85,14.32-13.92,22.92-1.07,3-2.48,5.8-3.32,8.93-4.88,18.13-6.35,36.63-6.82,55.31-.24,9.59-3.18,18.28-10.7,24.87-.37.32-.66.82-1.08,1-7.82,3-14.88,8.1-23.78,8q-16-.09-32-.08a494.54,494.54,0,0,1-83.94-7.15,82.72,82.72,0,0,1-13-3.08c-6.35-2.19-13-3.5-19.27-5.85-6.74-2.51-13.67-4.5-20.33-7.31-11.29-4.76-22.45-9.78-33.34-15.38a352,352,0,0,1-38.6-23.45,329.36,329.36,0,0,1-34.81-27.67,440.8,440.8,0,0,1-40-41.13c-15.2-18-29.93-36.3-43.32-55.72-5.28-7.66-11-15.07-16.15-22.81q-14.13-21.06-27.55-42.58c-5.56-9-10.57-18.25-16.35-27-6.41-9.74-11.65-20.13-17.57-30.13-7.73-13.06-14.19-26.86-21.71-40-6.67-11.7-12.15-24-18.93-35.66-3.11-5.34-5.23-11.25-8-16.79s-6-11.17-8.61-17c-3.91-8.7-8.4-17.12-12.24-25.87s-8.46-17.35-12.25-26.22c-5.19-12.13-11.84-23.7-14.44-36.88-2-10.17,5.6-17.56,14.1-20.12,13-3.91,26.27-2.78,39.48-2.81,37.35-.08,74.7-.24,112,.14,13.53.14,25.44,5,33.66,16.54,3.42,4.78,5.37,10.38,7.8,15.69,4.71,10.34,8.25,21.18,13.41,31.35,3.87,7.63,7.24,15.51,10.89,23.25,6,12.7,12.49,25.14,19.09,37.53,7,13.1,15,25.55,22.45,38.37,5.14,8.88,11.16,17.26,16.7,25.91a326.73,326.73,0,0,0,25.35,34.62c7.18,8.51,14.84,16.54,24.49,22.25,11.5,6.8,23.49,6.09,31.32-7.45,6.94-12,8.66-25.26,10.63-38.62,4-27.24,2.85-54.61,2.68-82-.06-9.94-.08-20-1.29-29.79-1.43-11.63-2.06-23.49-5.88-34.72-4.77-14-13-25.11-27-31.31-6.74-3-13.42-5.85-20.9-6.47-4.39-.36-5.5-2.45-3.82-6.57,2.82-6.93,8.52-11.33,14.37-15.34,9-6.16,19.21-9.12,29.84-11.5,20.87-4.69,42-5.07,63.19-5.74,17.82-.56,35.64-.49,53.4.37,13.89.67,27.83,1.46,41.48,5.1,5.38,1.44,11,2.14,16.32,4,10.73,3.84,17.6,11.12,21.46,21.92,5.18,14.5,4.82,29.45,4.52,44.38-.46,22.95-1.87,45.87-1.8,68.84q.07,21.68-.87,43.34c-.35,8-.56,16-.47,24,.12,9.69.63,19.42,2.69,28.88,2.41,11.11,6.57,21.44,16.13,28.75,4.55,3.48,13.44,3.37,19.81-.67,11.54-7.32,20.74-17.11,29.6-27.35a240.32,240.32,0,0,0,18.65-24.16c10.09-15.21,20.81-30.05,29.66-46.08,3.72-6.75,8.24-13,11.77-19.9,6.54-12.75,13.58-25.21,19.37-38.37,3.63-8.25,7.69-16.36,11.5-24.55,3.09-6.65,5.7-13.52,8.72-20.21,4.78-10.55,7.83-21.84,13.88-31.86,5.16-8.54,12.82-12.6,22.52-12.62,50-.11,100,.07,150-.21,11.6-.06,23.06.37,34.29,3.21,8.16,2.06,15,6.46,17.62,14.92a23.63,23.63,0,0,1-.09,13.48c-1.83,6.2-3,12.58-5.57,18.62-3.88,9-8.07,17.86-12.66,26.5a293,293,0,0,1-16.17,27.53c-8.61,12.65-17.16,25.36-26,37.85-12.43,17.52-25.76,34.35-38.46,51.66-8.4,11.45-17.51,22.38-26,33.79s-16.77,22.68-24.39,34.52c-5.29,8.23-9.27,17.32-9.75,27.41a33.35,33.35,0,0,0,3.76,16.55c7.36,15.06,19.78,25.68,31.35,37.07,10.13,10,21,19.2,31.11,29.19,13.45,13.25,26.66,26.68,39.56,40.48,9,9.61,17.22,19.77,25.39,30a197.29,197.29,0,0,1,21.78,33.6c4,7.91,7.61,15.92,6.54,25.15a24.52,24.52,0,0,1-12.88,19.47,80.13,80.13,0,0,1-40.49,10c-22-.32-44-.08-66-.08Z" transform="translate(-91 -91)"/></svg>